<?xml version="1.0" encoding="UTF-8" ?>
<!DOCTYPE svg PUBLIC "-//W3C//DTD SVG 1.1//EN" "http://www.w3.org/Graphics/SVG/1.1/DTD/svg11.dtd">
<svg width="512pt" height="512pt" viewBox="0 0 512 512" version="1.1" xmlns="http://www.w3.org/2000/svg">
<g id="#221f1fff">
<path fill="#221f1f" opacity="1.00" d=" M 155.81 23.80 C 165.04 14.50 177.71 8.27 190.96 8.30 C 209.70 7.93 226.72 16.80 244.40 21.64 C 251.16 23.60 258.40 23.97 265.25 22.23 C 283.53 17.80 300.79 8.22 320.00 8.30 C 332.86 8.03 345.38 13.56 354.63 22.35 C 367.19 33.83 374.95 49.26 385.77 62.20 C 390.28 67.74 396.67 71.34 403.35 73.63 C 416.34 78.31 430.00 81.24 442.41 87.47 C 450.78 91.60 458.44 97.49 463.74 105.24 C 469.54 113.64 472.28 123.78 473.14 133.85 C 474.52 147.55 472.87 161.33 473.89 175.05 C 474.25 180.73 475.89 186.31 478.85 191.18 C 483.41 198.76 489.07 205.59 494.26 212.73 C 502.98 224.46 510.76 237.67 512.00 252.56 L 512.00 259.43 C 510.55 277.08 499.98 291.95 489.56 305.57 C 483.07 314.49 475.08 323.45 474.09 334.95 C 472.11 355.78 476.81 377.67 468.64 397.61 C 463.22 411.64 450.64 421.55 436.99 426.99 C 424.66 432.26 411.41 434.94 399.03 440.06 C 393.21 442.41 388.21 446.45 384.38 451.40 C 374.64 463.69 367.08 477.75 355.65 488.67 C 347.39 496.79 336.53 502.53 324.89 503.48 C 311.46 504.69 298.33 500.66 285.83 496.24 C 277.34 493.42 268.93 490.02 260.01 488.85 C 251.20 487.75 242.64 490.74 234.39 493.42 C 219.71 498.40 204.77 504.48 188.96 503.62 C 176.64 503.14 165.06 497.20 156.34 488.69 C 144.34 477.32 136.76 462.38 126.24 449.79 C 121.74 444.23 115.34 440.65 108.66 438.34 C 95.91 433.71 82.50 430.83 70.26 424.83 C 61.64 420.68 53.69 414.72 48.26 406.75 C 42.27 398.11 39.56 387.62 38.75 377.24 C 37.43 363.17 39.29 349.01 37.88 334.94 C 37.34 328.97 34.94 323.33 31.64 318.37 C 23.72 306.33 13.84 295.59 7.15 282.74 C 3.25 275.54 0.84 267.57 0.00 259.43 L 0.00 251.61 C 1.91 234.36 12.15 219.81 22.44 206.44 C 28.73 197.74 36.46 189.10 37.76 178.01 C 39.40 163.93 37.45 149.73 38.68 135.63 C 39.41 125.43 41.82 115.10 47.46 106.44 C 52.90 97.88 61.20 91.51 70.26 87.15 C 79.86 82.44 90.22 79.61 100.40 76.43 C 106.71 74.35 113.17 72.40 118.82 68.81 C 124.25 65.32 128.14 60.03 131.92 54.91 C 139.54 44.29 146.38 32.96 155.81 23.80 M 184.43 25.68 C 177.01 27.38 170.70 32.10 165.54 37.52 C 153.74 49.99 146.47 66.09 133.97 77.95 C 123.95 87.25 110.29 90.60 97.62 94.63 C 86.45 98.15 74.63 101.67 65.93 109.93 C 59.47 115.90 56.60 124.70 55.54 133.21 C 53.56 149.67 56.58 166.38 53.75 182.78 C 52.82 188.45 50.66 193.84 47.82 198.82 C 39.32 213.68 26.35 225.74 19.65 241.66 C 16.14 249.74 15.55 259.07 18.57 267.40 C 25.75 288.19 44.94 302.11 52.17 322.86 C 58.45 343.68 51.60 365.89 57.13 386.82 C 59.17 394.93 64.42 402.02 71.48 406.48 C 89.49 418.12 112.54 418.42 130.15 430.84 C 147.43 444.26 154.63 466.68 171.86 480.16 C 178.35 485.34 186.79 487.86 195.07 487.02 C 215.76 485.21 234.08 472.86 254.96 472.02 C 277.34 471.91 296.79 486.11 318.99 487.11 C 328.36 487.70 337.33 483.32 343.94 476.92 C 358.52 463.18 365.88 443.24 381.84 430.84 C 397.43 419.90 417.17 418.32 434.07 410.16 C 443.06 406.01 451.18 398.86 454.12 389.13 C 460.56 368.62 454.02 346.71 458.92 325.96 C 462.08 313.15 471.00 303.00 478.59 292.58 C 486.42 282.06 494.77 270.61 495.39 257.01 C 495.70 243.65 487.89 232.03 480.29 221.71 C 472.38 210.69 462.78 200.22 459.13 186.83 C 453.99 166.36 460.28 144.79 454.62 124.41 C 452.30 115.59 445.94 108.31 438.05 103.95 C 423.47 95.73 406.51 93.48 391.36 86.60 C 385.86 84.15 380.71 80.83 376.50 76.50 C 363.75 63.63 356.38 46.35 342.91 34.11 C 336.22 27.94 327.16 24.11 317.97 24.93 C 296.17 26.34 276.99 40.06 254.95 39.97 C 235.39 39.11 218.08 28.38 198.94 25.37 C 194.13 24.74 189.18 24.56 184.43 25.68 Z" />
<path fill="#221f1f" opacity="1.00" d=" M 245.53 68.53 C 249.31 64.10 250.07 57.65 254.52 53.65 C 257.58 58.38 259.80 63.57 262.30 68.59 C 267.91 69.48 273.73 69.64 279.05 71.79 C 275.81 76.48 271.34 80.08 267.31 84.06 C 268.07 89.74 270.09 95.40 269.28 101.19 C 264.04 99.09 259.16 96.21 254.13 93.68 C 249.01 96.18 244.26 99.63 238.62 100.87 C 238.74 95.22 240.07 89.70 241.03 84.15 C 237.45 80.30 233.15 77.09 230.04 72.85 C 230.04 72.46 230.05 71.69 230.06 71.31 C 235.04 69.56 240.46 69.91 245.53 68.53 Z" />
<path fill="#221f1f" opacity="1.00" d=" M 151.08 80.56 C 156.74 82.10 160.71 86.83 166.04 89.02 C 171.48 87.66 176.28 84.19 182.00 83.86 C 181.49 89.38 179.15 94.48 178.16 99.89 C 180.64 105.01 186.21 108.21 187.94 113.75 C 182.58 115.49 176.78 114.59 171.23 115.13 C 168.20 119.70 165.87 124.83 162.00 128.78 C 161.00 128.12 160.29 127.25 159.85 126.15 C 158.04 121.94 156.75 117.52 154.96 113.30 C 150.61 112.26 146.24 111.29 141.96 110.02 C 140.73 109.74 139.78 109.06 139.12 107.98 C 142.57 103.94 147.38 101.43 151.20 97.79 C 152.17 92.17 150.32 86.29 151.08 80.56 Z" />
<path fill="#221f1f" opacity="1.00" d=" M 342.01 90.49 C 347.17 88.06 351.29 83.82 356.67 81.76 C 357.36 87.49 356.53 93.23 356.31 98.95 C 360.77 102.48 365.59 105.66 369.28 110.04 C 364.04 112.35 358.35 113.32 352.86 114.82 C 350.79 119.82 349.61 125.24 346.77 129.88 C 345.73 129.89 344.94 129.46 344.40 128.59 C 341.58 124.72 339.27 120.50 336.65 116.49 C 330.93 116.17 325.10 116.57 319.52 115.12 C 322.45 110.24 326.39 106.09 330.04 101.75 C 328.81 96.53 326.77 91.49 326.04 86.17 C 326.72 85.19 327.60 84.96 328.68 85.46 C 333.23 86.83 337.42 89.20 342.01 90.49 Z" />
<path fill="#221f1f" opacity="1.00" d=" M 241.48 118.70 C 268.47 115.87 296.30 121.05 320.27 133.83 C 349.12 148.90 372.20 174.59 384.20 204.84 C 395.37 232.66 397.03 264.15 388.96 293.01 C 380.88 322.46 362.57 348.92 338.00 367.02 C 315.04 384.11 286.63 393.71 258.00 394.01 C 229.24 394.50 200.41 385.67 176.90 369.09 C 153.27 352.64 135.06 328.58 125.63 301.38 C 115.10 271.29 115.46 237.54 126.68 207.69 C 136.43 181.44 154.43 158.40 177.44 142.47 C 196.35 129.36 218.59 121.09 241.48 118.70 M 239.44 135.66 C 200.44 140.72 165.01 166.27 147.51 201.43 C 134.82 226.40 131.31 255.83 137.62 283.10 C 144.07 311.73 161.45 337.69 185.34 354.70 C 207.60 370.84 235.52 378.89 262.95 377.25 C 286.26 376.02 309.10 367.73 327.85 353.85 C 350.57 337.21 367.23 312.46 373.90 285.08 C 379.89 260.97 378.22 235.00 369.13 211.86 C 358.31 183.97 336.77 160.43 309.94 147.19 C 288.33 136.29 263.38 132.38 239.44 135.66 Z" />
<path fill="#221f1f" opacity="1.00" d=" M 92.78 155.14 C 96.65 151.12 99.27 145.96 103.79 142.54 C 106.03 147.74 107.14 153.32 108.43 158.80 C 113.71 160.95 119.24 162.50 124.26 165.25 C 120.36 169.57 114.95 171.97 110.22 175.20 C 109.93 180.87 110.25 186.62 108.99 192.19 C 103.65 189.77 100.13 184.56 94.94 182.08 C 89.51 182.99 84.42 185.41 78.89 185.80 C 79.44 180.15 82.72 175.34 84.19 169.96 C 81.98 164.58 77.30 160.54 75.56 154.90 C 81.30 154.25 87.08 155.82 92.78 155.14 Z" />
<path fill="#221f1f" opacity="1.00" d=" M 402.55 145.58 C 403.87 146.13 405.35 146.55 406.24 147.77 C 409.07 151.05 411.58 154.59 414.28 157.98 C 420.02 157.81 425.83 156.55 431.54 157.69 C 429.03 162.80 425.56 167.33 422.47 172.08 C 424.49 177.36 427.00 182.49 428.24 188.03 C 422.39 188.12 417.12 185.05 411.40 184.52 C 406.71 187.62 403.08 192.22 397.88 194.60 C 396.72 188.96 396.98 183.18 396.64 177.47 C 391.98 174.22 386.31 172.13 382.74 167.55 C 387.76 165.04 393.15 163.43 398.36 161.36 C 399.76 156.10 401.01 150.80 402.55 145.58 Z" />
<path fill="#221f1f" opacity="1.00" d=" M 62.21 249.19 C 64.05 243.86 62.46 237.35 66.23 232.79 C 70.27 236.52 73.94 240.63 77.86 244.49 C 83.38 243.58 88.86 242.29 94.47 242.05 C 93.80 247.96 89.18 252.35 87.72 257.95 C 89.81 263.13 93.46 267.65 94.63 273.21 C 89.07 273.21 83.72 271.53 78.23 271.05 C 73.35 274.17 70.50 279.84 65.18 282.48 C 63.45 277.07 63.64 271.28 62.05 265.86 C 57.80 262.94 52.55 261.73 48.46 258.55 C 48.30 258.20 47.99 257.50 47.83 257.14 C 52.22 253.79 57.87 252.57 62.21 249.19 Z" />
<path fill="#221f1f" opacity="1.00" d=" M 168.00 236.00 C 174.85 236.20 181.79 235.45 188.58 236.68 C 191.98 237.21 195.13 239.52 196.09 242.92 C 197.18 246.97 197.23 251.52 195.53 255.41 C 194.23 258.42 190.90 259.39 188.09 260.41 C 190.68 260.88 193.91 261.11 195.22 263.81 C 197.41 268.10 196.88 273.16 196.52 277.80 C 196.23 281.75 193.84 285.89 189.67 286.61 C 182.54 288.05 175.21 287.30 168.00 287.43 C 168.00 270.29 167.99 253.15 168.00 236.00 M 178.55 243.01 C 178.45 247.73 178.49 252.45 178.50 257.17 C 180.57 256.72 183.79 257.06 184.35 254.38 C 185.04 251.53 185.09 248.45 184.32 245.62 C 183.51 243.27 180.51 243.61 178.55 243.01 M 178.50 264.03 C 178.47 269.43 178.50 274.83 178.48 280.23 C 180.61 279.88 183.70 280.02 184.32 277.36 C 185.09 273.86 185.12 270.12 184.32 266.62 C 183.69 264.03 180.50 264.57 178.50 264.03 Z" />
<path fill="#221f1f" opacity="1.00" d=" M 203.99 235.99 C 210.54 236.12 217.13 235.66 223.66 236.42 C 227.36 236.83 231.44 238.49 232.84 242.24 C 234.18 246.12 234.15 250.62 232.47 254.39 C 231.30 257.10 228.50 258.38 225.97 259.53 C 229.05 260.53 232.76 261.95 233.31 265.62 C 234.51 272.84 232.80 280.34 235.01 287.46 C 230.99 287.48 226.97 287.49 222.95 287.35 C 220.92 280.85 222.34 274.01 221.46 267.40 C 221.03 264.46 217.90 264.00 215.49 263.76 C 215.46 271.66 215.52 279.56 215.46 287.45 C 211.64 287.48 207.82 287.47 204.00 287.44 C 203.98 270.29 204.02 253.14 203.99 235.99 M 215.58 243.14 C 215.43 247.71 215.43 252.28 215.57 256.85 C 217.47 256.22 220.32 256.48 221.15 254.22 C 222.05 251.53 222.06 248.46 221.17 245.77 C 220.37 243.48 217.48 243.76 215.58 243.14 Z" />
<path fill="#221f1f" opacity="1.00" d=" M 248.63 236.07 C 254.15 235.96 259.68 236.00 265.20 236.02 C 267.37 253.18 269.70 270.31 271.78 287.47 C 267.82 287.46 263.86 287.47 259.91 287.44 C 259.46 283.25 258.99 279.06 258.60 274.87 C 256.42 274.83 254.23 274.81 252.05 274.80 C 251.37 279.01 250.73 283.22 250.10 287.44 C 246.73 287.46 243.36 287.46 239.99 287.40 C 242.84 270.29 245.90 253.21 248.63 236.07 M 255.44 245.59 C 254.45 252.69 254.05 259.86 253.37 266.99 C 254.44 266.99 256.58 266.99 257.65 267.00 C 256.90 259.86 256.68 252.66 255.44 245.59 Z" />
<path fill="#221f1f" opacity="1.00" d=" M 276.00 236.00 C 282.03 235.98 288.06 236.00 294.08 235.99 C 296.63 248.10 298.94 260.26 301.61 272.34 C 302.31 260.24 301.77 248.10 301.95 235.98 C 305.06 235.98 308.17 236.00 311.28 236.00 C 311.33 253.14 311.30 270.29 311.29 287.43 C 306.11 287.49 300.92 287.56 295.75 287.29 C 293.01 273.66 290.55 259.94 287.13 246.47 C 286.56 260.11 287.00 273.78 286.90 287.43 C 283.26 287.46 279.62 287.46 275.99 287.44 C 276.02 270.29 275.98 253.15 276.00 236.00 Z" />
<path fill="#221f1f" opacity="1.00" d=" M 316.00 236.00 C 324.03 236.26 332.22 235.25 340.13 236.98 C 344.77 237.98 347.21 242.66 347.59 247.05 C 348.38 255.36 347.87 263.73 348.00 272.07 C 348.09 277.17 346.78 283.34 341.55 285.51 C 333.45 288.76 324.48 287.06 315.99 287.43 C 316.02 270.29 315.98 253.14 316.00 236.00 M 329.72 243.13 C 329.60 255.55 329.57 267.98 329.73 280.40 C 331.92 279.74 335.32 279.64 335.67 276.73 C 336.34 272.19 335.90 267.58 335.99 263.01 C 335.83 257.46 336.45 251.85 335.59 246.35 C 335.25 243.44 331.84 243.75 329.72 243.13 Z" />
<path fill="#221f1f" opacity="1.00" d=" M 430.98 243.99 C 433.87 241.22 436.21 237.71 439.84 235.86 C 442.93 240.78 441.35 247.19 443.65 252.38 C 448.14 255.29 453.53 256.62 457.69 260.05 C 454.50 264.74 447.97 265.34 443.54 268.61 C 441.93 273.82 441.97 279.41 440.76 284.73 C 434.94 283.55 432.44 277.12 427.77 273.96 C 422.03 274.00 416.49 276.32 410.70 275.81 C 412.21 270.21 416.20 265.65 417.79 260.15 C 415.68 255.03 412.31 250.50 410.73 245.15 C 415.89 244.74 420.86 246.37 425.95 246.91 C 428.21 247.54 429.51 245.25 430.98 243.99 Z" />
<path fill="#221f1f" opacity="1.00" d=" M 93.96 333.93 C 98.51 330.49 102.38 325.99 107.66 323.63 C 108.79 329.24 108.50 335.00 108.94 340.69 C 113.30 343.46 118.04 345.78 121.92 349.23 C 121.96 349.63 122.04 350.43 122.08 350.83 C 117.51 353.80 111.65 354.20 107.21 357.26 C 105.32 362.14 104.96 367.49 102.87 372.30 C 102.43 372.27 101.56 372.21 101.12 372.18 C 97.32 368.80 94.95 364.16 91.39 360.57 C 85.79 359.83 80.08 361.46 74.43 360.82 C 75.75 355.12 80.45 351.18 82.83 345.99 C 81.42 340.47 78.00 335.55 77.51 329.77 C 83.13 330.58 88.51 332.41 93.96 333.93 Z" />
<path fill="#221f1f" opacity="1.00" d=" M 396.27 326.35 C 401.86 328.06 405.54 332.99 410.12 336.35 C 415.63 334.93 421.01 332.83 426.73 332.40 C 426.05 338.17 422.37 343.07 421.41 348.71 C 423.92 353.72 428.31 357.70 429.81 363.24 C 424.17 363.58 418.55 362.88 412.93 362.60 C 409.13 366.85 406.45 372.27 401.52 375.38 C 399.49 370.12 398.40 364.56 396.94 359.13 C 392.03 357.32 387.10 355.56 382.23 353.67 C 382.20 353.08 382.15 351.90 382.13 351.31 C 386.54 348.46 391.06 345.77 395.39 342.79 C 395.46 337.30 395.52 331.80 396.27 326.35 Z" />
<path fill="#221f1f" opacity="1.00" d=" M 158.25 388.84 C 158.69 388.68 159.55 388.36 159.99 388.20 C 163.76 392.17 165.46 397.71 169.37 401.51 C 174.68 402.48 180.38 400.99 185.46 403.05 C 183.79 408.64 177.91 411.76 175.77 417.03 C 176.77 422.47 179.35 427.60 179.32 433.23 C 173.67 432.17 168.75 428.81 163.16 427.72 C 158.24 430.37 154.08 434.32 148.81 436.35 C 147.86 430.66 149.46 424.94 148.98 419.24 C 145.04 415.19 139.64 412.70 136.33 408.00 C 141.43 405.70 147.07 405.12 152.31 403.26 C 154.99 398.77 155.74 393.41 158.25 388.84 Z" />
<path fill="#221f1f" opacity="1.00" d=" M 334.44 402.49 C 337.64 398.44 339.54 393.48 343.06 389.68 C 343.46 389.77 344.27 389.95 344.67 390.04 C 347.18 394.65 348.46 399.82 350.40 404.69 C 355.81 406.16 361.35 407.19 366.60 409.21 C 363.76 414.15 358.24 416.46 354.35 420.41 C 353.47 426.01 355.06 431.75 354.57 437.42 C 348.93 436.04 344.69 431.78 339.85 428.84 C 334.44 430.74 329.28 433.49 323.58 434.49 C 324.12 428.80 326.16 423.42 327.62 417.93 C 324.21 413.29 319.45 409.50 317.44 403.97 C 323.05 402.96 328.97 403.93 334.44 402.49 Z" />
<path fill="#221f1f" opacity="1.00" d=" M 235.82 418.12 C 236.61 417.39 237.47 417.28 238.40 417.77 C 242.80 419.55 246.69 422.42 251.12 424.14 C 256.39 422.82 260.57 418.67 265.87 417.27 C 267.50 418.29 266.74 420.32 266.64 421.88 C 266.01 425.94 265.20 429.98 264.55 434.06 C 268.59 437.99 272.86 441.74 276.34 446.22 C 271.03 448.57 265.11 448.57 259.48 449.53 C 256.94 454.36 255.04 459.58 251.84 464.03 C 250.88 463.76 250.15 463.21 249.66 462.36 C 247.19 458.37 245.76 453.82 243.19 449.88 C 238.46 448.22 233.28 448.53 228.44 447.28 C 227.24 447.27 226.66 445.35 227.55 444.64 C 230.70 440.74 235.07 437.93 237.95 433.80 C 237.71 428.52 235.79 423.43 235.82 418.12 Z" />
</g>
</svg>
