<svg xmlns="http://www.w3.org/2000/svg" viewBox="0 0 511.97 512"><defs><style>.cls-1{fill:#00abe1;}</style></defs><g id="Layer_2" data-name="Layer 2"><g id="Layer_1-2" data-name="Layer 1"><g id="_0d0d0dff" data-name="#0d0d0dff"><path class="cls-1" d="M244.61,0h22.77c14.1,1.19,28.22,2.48,42.06,5.57A253.27,253.27,0,0,1,410.61,52c-1.95,2.66-3.91,5.3-5.87,8a251.26,251.26,0,0,0-50.89-29.79,246.41,246.41,0,0,0-238,23.7A63.33,63.33,0,0,1,108,59.11a52.48,52.48,0,0,1-6-7.7A254.59,254.59,0,0,1,230.9,1.24C235.47.84,240.05.48,244.61,0Z"/><path class="cls-1" d="M0,94a7.74,7.74,0,0,1,6.92-3c65.72.08,131.44,0,197.15.06a5.2,5.2,0,0,1,5.9,5.9c.15,91.47-.14,182.94.15,274.41,18,1.77,33.95,15.7,38.37,33.22a44.95,44.95,0,1,1-48.58-33.23c.2-90.1,0-180.21.08-270.31q-95-.06-190,0,0,155,0,310,67.5,0,135,0c0,3.33,0,6.66,0,10q-69,0-138.08,0A7.8,7.8,0,0,1,0,418V94M198.4,381.63a35.25,35.25,0,0,0-23,15.77c-8.58,13.06-6.66,31.74,4.4,42.79,10.42,11.28,28.54,14.13,41.9,6.53,14.86-7.74,22.28-26.94,16.2-42.61C232.48,388.33,214.78,378.11,198.4,381.63Z"/><path class="cls-1" d="M63,123q42,0,84,0c0,3.34,0,6.68,0,10q-42,0-84,0Z"/><path class="cls-1" d="M325,123q42,0,84,0,0,5,0,10-42,0-84,0Z"/><path class="cls-1" d="M46.3,166.34c11.43-2.51,23.4,7,23.66,18.65.87,11-8.93,21.29-20,21-10.67.26-20.26-9.33-20-20A20.17,20.17,0,0,1,46.3,166.34m1,10C40.19,178,37.5,188.1,43,193.05c5,5.43,15,2.77,16.66-4.38C62,181.58,54.41,174.05,47.34,176.39Z"/><path class="cls-1" d="M308.3,166.34c11.08-2.41,22.76,6.41,23.6,17.68,1.45,11.32-8.51,22.28-19.9,22-10.67.26-20.25-9.32-20-20a20.17,20.17,0,0,1,16.29-19.66m1,10C302.19,178,299.5,188.1,305,193c4.95,5.46,15,2.77,16.66-4.38C324,181.57,316.41,174.06,309.34,176.38Z"/><path class="cls-1" d="M85,181h90c0,3.33,0,6.66,0,10q-45,0-90,0Z"/><path class="cls-1" d="M347,181h90q0,5,0,10-45,0-90,0Z"/><path class="cls-1" d="M46.29,236.34c11.43-2.5,23.42,7,23.67,18.65.85,11-8.92,21.29-20,21-10.67.26-20.26-9.33-20-20-.19-9.34,7.1-18.06,16.28-19.66m1.05,10c-7.16,1.66-9.81,11.7-4.39,16.67,4.95,5.44,15,2.75,16.66-4.39C62,251.55,54.4,244.09,47.34,246.38Z"/><path class="cls-1" d="M308.3,236.34c11.42-2.51,23.41,7,23.66,18.65.86,11-8.92,21.29-20,21-10.66.26-20.26-9.33-20-20a20.14,20.14,0,0,1,16.29-19.66m1,10c-7.46,1.7-9.89,12.41-3.88,17.15,5.35,5.13,15.29,1.64,16.33-5.68C323.46,250.9,316.09,244.23,309.34,246.37Z"/><path class="cls-1" d="M85,251h90v10H85Q85,256,85,251Z"/><path class="cls-1" d="M347,251q45,0,90,0c0,3.33,0,6.67,0,10H347C347,257.66,347,254.32,347,251Z"/><path class="cls-1" d="M46.3,306.35c11.42-2.52,23.4,7,23.66,18.64.87,11-8.93,21.29-20,21-10.66.26-20.26-9.32-20-20A20.15,20.15,0,0,1,46.3,306.35m1,10c-7.14,1.66-9.83,11.71-4.38,16.66,5,5.43,15,2.77,16.66-4.39C62,321.57,54.41,314.05,47.33,316.39Z"/><path class="cls-1" d="M308.3,306.34c11.43-2.51,23.4,7,23.66,18.65.86,11-8.93,21.28-20,21-10.67.26-20.25-9.32-20-20a20.17,20.17,0,0,1,16.29-19.66m1,10c-7.15,1.65-9.84,11.72-4.39,16.67,4.95,5.45,15,2.76,16.66-4.39C324,321.57,316.41,314.05,309.34,316.38Z"/><path class="cls-1" d="M85,321h90c0,3.33,0,6.66,0,10q-45,0-90,0Z"/><path class="cls-1" d="M262,94a7.74,7.74,0,0,1,6.92-3c65.72.08,131.44,0,197.15.06a5.2,5.2,0,0,1,5.9,5.9c.15,91.47-.14,182.94.15,274.41,18,1.77,33.95,15.7,38.37,33.22a44.95,44.95,0,1,1-48.58-33.23c.2-90.1,0-180.21.08-270.31q-95-.06-190,0,0,155,0,310,67.5,0,135,0c0,3.33,0,6.66,0,10q-69,0-138.08,0a7.8,7.8,0,0,1-6.92-3V94M460.4,381.63a35.25,35.25,0,0,0-23,15.77c-8.58,13.06-6.66,31.74,4.4,42.79,10.42,11.28,28.54,14.13,41.9,6.53,14.86-7.74,22.28-26.94,16.2-42.61C494.48,388.33,476.78,378.11,460.4,381.63Z"/><path class="cls-1" d="M347,321h90c0,3.33,0,6.66,0,10q-45,0-90,0Z"/><path class="cls-1" d="M303.55,497.42A246.5,246.5,0,0,0,404.76,452l5.84,8a253.54,253.54,0,0,1-89.8,43.78c-17.77,4.73-36.07,7-54.39,8.24H244.62c-12.44-1.12-24.91-2.15-37.17-4.61A255.18,255.18,0,0,1,102,460.57q2.93-4,5.94-8a251.94,251.94,0,0,0,62.37,34.13A248.27,248.27,0,0,0,303.55,497.42Z"/></g><polygon class="cls-1" points="185.3 408.66 199.04 422.46 224.74 396.77 233.1 405.25 199.04 439.19 176.93 417.08 185.3 408.6 185.3 408.66"/><polygon class="cls-1" points="446.31 408.66 460.05 422.46 485.75 396.77 494.12 405.25 460.05 439.19 437.94 417.08 446.31 408.6 446.31 408.66"/></g></g></svg>