<svg xmlns="http://www.w3.org/2000/svg" viewBox="0 0 408.07 502"><defs><style>.cls-1{fill:#00abe1;}</style></defs><g id="Layer_2" data-name="Layer 2"><g id="Layer_1-2" data-name="Layer 1"><g id="_000000ff" data-name="#000000ff"><path class="cls-1" d="M408.05,478.09c0-1-.06-2.14,0-3.25q0-138.79,0-277.59Q408,100.6,408,4l0-.47c.15-1.65-1.32-3.07-2.89-3.48H67.8A71.14,71.14,0,0,0,25.26,17C9.86,30.06.43,49.47,0,69q0,98.23,0,196.45V414a71.3,71.3,0,0,0,15.35,43.41c13.15,16.9,34.46,27.42,55.63,27.49q14.86,0,29.75,0H128l.05,4.93c0,1,0,2.06,0,3.1a34.38,34.38,0,0,0,.31,6.85c.25,1,1.51,1.75,2.8,2.17H132a9.31,9.31,0,0,0,3.48-2.39c4.84-4.91,9.73-9.8,14.46-14.52l7.21-7.21,3.54,3.49c4.6,4.55,9.23,9.21,13.71,13.72l4.78,4.81a8.54,8.54,0,0,0,3.17,2.1h1.09c1.46-.66,2.4-1.45,2.55-2.17a33.48,33.48,0,0,0,.35-6.94c0-1,0-2,0-3l.06-4.94h60.25c49.92,0,101.55,0,152.33,0,.73,0,1.48,0,2.24,0,2.9,0,4.88,0,5.81-1l.17-.16C408.1,483,408.12,481.08,408.05,478.09ZM10.51,51.7A65.19,65.19,0,0,1,53.3,10L59.73,8v6.72q0,15.17,0,30.33v14.4l-3.88.89A72.69,72.69,0,0,0,16,85.29L7.17,96.12l-.06-14C7.07,72.07,7,61.72,10.51,51.7Zm49.07,56.19,0,4-3.85.92a73.24,73.24,0,0,0-39.68,24.87L7.85,147.83l-.66-13.08C6.38,118.65,11,103.2,20.32,91.27A66,66,0,0,1,53.07,68.42l6.49-2V82C59.56,90.61,59.55,99.25,59.58,107.89ZM7.11,219.19c.07-5.6.06-11.3,0-16.82,0-7.17,0-14.58.13-21.9a63.6,63.6,0,0,1,18.81-43.4,67.57,67.57,0,0,1,27.07-16.34l6.53-2.14,0,6.87c.07,16,.06,32.26,0,48q0,9.59,0,19.18v4l-3.88.89A72.85,72.85,0,0,0,16,222.41l-9,11.1ZM58,248.26a6.47,6.47,0,0,1-4.17,2.2,72,72,0,0,0-37.73,24.3L7.84,285l-.65-13.08c-.78-15.61,3.59-30.65,12.3-42.35a65.69,65.69,0,0,1,33.57-24l6.49-2v19.86q0,9.65,0,19.32A7.34,7.34,0,0,1,58,248.26ZM7.07,364.36c.12-7.41.1-15,.08-22.29,0-8,0-16.21.12-24.35a63.59,63.59,0,0,1,18.37-43.05,66.73,66.73,0,0,1,27.58-16.8l6.52-2.1v6.85q0,15,0,30.05c0,14.8,0,30.09,0,45.14l0,3.94-3.83.94a75.7,75.7,0,0,0-40.07,24.94l-9.07,11Zm172,113.33,0,11.83-8.46-8.26c-1.42-1.39-2.82-2.82-4.21-4.24-2.39-2.44-4.65-4.74-7.07-6.9a3.35,3.35,0,0,0-4.3,0c-2.35,2.17-4.53,4.39-6.84,6.73-1.49,1.52-3,3-4.5,4.52l-8.49,8.28V477.82q0-16.83.05-33.67,0-11.08,0-22.19v-5h5q16.89,0,33.81,0h5l0,5c0,9.28,0,18.56,0,27.84S179.08,468.4,179.05,477.69Zm-22.57-68.48c-6.67,0-13.57.06-20.38,0-12.53.52-25.23.47-37.51.41-9,0-18.28-.08-27.38.11a3,3,0,0,0-2.06,1.16,3.27,3.27,0,0,0-.83,2.47l0,.3a3.53,3.53,0,0,0,3.48,3H72c10,.06,20.14.05,30,0q10.51,0,21,0h5v5c0,5.7,0,11.41,0,17.1v5H102.65q-15.36,0-30.7,0h-.12a30.59,30.59,0,0,1-.3-61.18h.52q108,0,216,0H401l0,5c0,5.35,0,10.95,0,17.12v5h-5q-6.16,0-12.34,0c-7.06,0-14.36,0-21.52,0h-.31a3.27,3.27,0,0,0-2.34,1,3.21,3.21,0,0,0-1.07,2.29v.3a3.23,3.23,0,0,0,1,2.37,3.29,3.29,0,0,0,2.37,1.06h.2c6.64.06,13.41.05,20,0,4.68,0,9.36,0,14,0l5,0,0,5q0,4.28,0,8.55c0,2.84,0,5.68,0,8.52l0,5h-5q-102.18,0-204.36,0h-5v-5q0-8.53,0-17.08v-5l5,0c5.6,0,11.21,0,16.82,0,8.41,0,17.1,0,25.64-.06h.14a3.19,3.19,0,0,0,2.24-1.06,3.3,3.3,0,0,0,1-2.36V413a3.36,3.36,0,0,0-1.08-2.35,3.2,3.2,0,0,0-2.22-1H234c-10-.08-20.14-.07-30,0l-12.9,0h-.22C179.45,409.1,167.77,409.16,156.48,409.21Zm244.6,63.67v5H186.52l0-5q0-8.55,0-17.1l0-5H401.07v5Q401.1,464.34,401.08,472.88Zm0-102.41v5H248.53q-88.25,0-176.5,0A37.87,37.87,0,0,0,45,386.8a37.59,37.59,0,0,0,4.63,56.66A37.79,37.79,0,0,0,72,450.79h.08q14.35,0,28.66,0h27.33l0,5c0,3.32,0,6.63,0,9.95,0,2.37,0,4.73,0,7.1v5H99q-13.48,0-27,0a65.06,65.06,0,0,1-24.46-4.77C21.41,462.79,4.27,434.65,7.66,407.6A63.6,63.6,0,0,1,29.8,364.38a64.77,64.77,0,0,1,43.29-15.74h328v5C401.09,359.25,401.09,364.85,401.08,370.47Zm0-358.4q0,162,0,324v5H66.81v-5q0-15.39,0-30.79c0-19.79,0-40.25.17-60.39,0-17,0-34.38-.09-51.17-.09-25.16-.18-51.18,0-76.79.16-19.25.08-38.83,0-57.77-.07-15.44-.14-31.41-.08-47.13l0-5h5q97.13,0,194.25,0h135Z"/></g><g id="global"><path class="cls-1" d="M198.72,216.66a1.46,1.46,0,0,1-1.2-.61,44.51,44.51,0,0,1,67.6-57.48,1.48,1.48,0,1,1-2.1,2.09,41.55,41.55,0,0,0-63.1,53.65,1.48,1.48,0,0,1-.33,2.07A1.5,1.5,0,0,1,198.72,216.66Z"/><path class="cls-1" d="M233.65,234.53a44.38,44.38,0,0,1-31.48-13,1.48,1.48,0,1,1,2.1-2.09,41.55,41.55,0,0,0,63.15-53.59,1.48,1.48,0,1,1,2.4-1.73,44.49,44.49,0,0,1-36.17,70.43Z"/><path class="cls-1" d="M203.22,229.25a1.48,1.48,0,0,1-1.48-1.48v-7.3a1.49,1.49,0,0,1,1.48-1.49h7.3a1.49,1.49,0,1,1,0,3H204.7v5.82A1.48,1.48,0,0,1,203.22,229.25Z"/><path class="cls-1" d="M264.07,161.1h-7.3a1.49,1.49,0,0,1,0-3h5.82v-5.82a1.49,1.49,0,0,1,3,0v7.3A1.49,1.49,0,0,1,264.07,161.1Z"/><path class="cls-1" d="M233.65,222.68A32.64,32.64,0,1,1,266.28,190,32.67,32.67,0,0,1,233.65,222.68Zm0-62.31A29.67,29.67,0,1,0,263.32,190,29.71,29.71,0,0,0,233.65,160.37Z"/><path class="cls-1" d="M233.65,222.68A32.64,32.64,0,1,1,266.28,190,32.67,32.67,0,0,1,233.65,222.68Zm0-62.31A29.67,29.67,0,1,0,263.32,190,29.71,29.71,0,0,0,233.65,160.37Z"/><path class="cls-1" d="M256.33,212.83a1.52,1.52,0,0,1-.42-.06,79.21,79.21,0,0,0-44.54,0,1.48,1.48,0,0,1-.83-2.85,82.36,82.36,0,0,1,46.21,0,1.49,1.49,0,0,1-.42,2.91Z"/><path class="cls-1" d="M233.65,173.49a82.38,82.38,0,0,1-16.13-1.6,1.48,1.48,0,1,1,.59-2.91,79.2,79.2,0,0,0,37.8-1.67,1.49,1.49,0,0,1,.84,2.85A81.78,81.78,0,0,1,233.65,173.49Z"/><path class="cls-1" d="M235.14,222.61a1.47,1.47,0,0,1-1.22-.65,1.49,1.49,0,0,1,.38-2.06,36,36,0,0,0,0-59.72,1.49,1.49,0,0,1,1.68-2.45,39,39,0,0,1,0,64.62A1.54,1.54,0,0,1,235.14,222.61Z"/><path class="cls-1" d="M232.15,222.61a1.54,1.54,0,0,1-.84-.26,38.92,38.92,0,0,1-7.75-57.68,1.48,1.48,0,0,1,2.25,1.93A35.93,35.93,0,0,0,233,219.89a1.49,1.49,0,0,1-.84,2.72Z"/><path class="cls-1" d="M233.65,221a1.49,1.49,0,0,1-1.49-1.48v-59a1.49,1.49,0,0,1,3,0v59A1.48,1.48,0,0,1,233.65,221Z"/><path class="cls-1" d="M263.16,191.52H208.58a1.48,1.48,0,0,1,0-3h54.58a1.48,1.48,0,1,1,0,3Z"/></g><path class="cls-1" d="M169.41,40.94c4.31-2.74,11-1.21,12.83,3.84C192,67.32,201.38,90,211.05,112.57c1.17,2.79,2.81,6.3.59,9.05-2.53,3.71-8.89,2.83-10.49-1.32-2.66-5.87-4.93-11.91-7.51-17.84q-19.35,0-38.68,0c-2.57,5.86-4.84,11.85-7.46,17.69-1.45,3.88-7,5.14-9.95,2.19-2.16-1.94-2.08-5.19-.9-7.62Q151.23,80.36,165.77,46c.87-1.87,1.81-3.9,3.64-5.05m4.85,15.22c-4.92,11.65-9.72,23.36-14.57,35,9.74,0,19.48,0,29.22,0C184,79.54,179.3,67.77,174.26,56.16Z"/><path class="cls-1" d="M269.2,44.45c.73-2.9,3.77-4.49,6.61-4.22,16.86.08,33.73-.16,50.59.12,6.09.15,9.17,8.4,5.15,12.78-15.69,19.65-31.7,39-47.3,58.75,14.39.07,28.78,0,43.18,0,3.43-.4,6.89,2.38,6.64,6,.07,3.42-3.35,5.92-6.6,5.51-16.86,0-33.72,0-50.58,0a7.6,7.6,0,0,1-8.18-7.67c-.14-3.62,2.88-6.11,4.87-8.75Q295.86,79.5,318.09,52c-14.47-.07-28.95.11-43.42-.07A5.75,5.75,0,0,1,269.2,44.45Z"/><path class="cls-1" d="M228,84.48c7.87-.31,15.77-.16,23.63-.06,4.2,0,6.66,5.65,3.93,8.82-1.88,2.54-5.34,2.08-8.12,2.16-6.58-.19-13.2.26-19.77-.23C222.08,94.19,222.43,85.14,228,84.48Z"/><path class="cls-1" d="M167.49,251.58c1.88-.76,4-.44,6-.5,42.12,0,84.24,0,126.36,0a5.41,5.41,0,1,1,0,10.8q-64.76,0-129.51,0a5.6,5.6,0,0,1-5.61-3.41A5.43,5.43,0,0,1,167.49,251.58Z"/><path class="cls-1" d="M177.41,282.28c37.74-.26,75.5,0,113.25-.11,3.13-.4,6.34,2.06,6.28,5.32.17,3.35-3.13,5.92-6.34,5.52q-55.5,0-111,0c-2.27.14-4.82-.53-6-2.67C171.67,287.3,173.77,282.68,177.41,282.28Z"/><path class="cls-1" d="M196.84,313.38c24.82-.29,49.67,0,74.51-.12a5.53,5.53,0,0,1,5.8,3.76,5.38,5.38,0,0,1-5.06,7q-37,.09-74,0a5.38,5.38,0,0,1-1.24-10.66Z"/></g></g></svg>