<?xml version="1.0" encoding="UTF-8" ?>
<!DOCTYPE svg PUBLIC "-//W3C//DTD SVG 1.1//EN" "http://www.w3.org/Graphics/SVG/1.1/DTD/svg11.dtd">
<svg width="512pt" height="512pt" viewBox="0 0 512 512" version="1.1" xmlns="http://www.w3.org/2000/svg">
<g id="#000000ff">
<path fill="#000000" opacity="1.00" d=" M 142.60 0.00 L 145.25 0.00 C 148.32 0.63 151.32 2.31 152.74 5.22 C 155.78 11.19 158.34 17.39 161.44 23.33 C 167.33 24.16 173.21 25.01 179.07 25.99 C 183.54 26.56 187.56 30.33 187.91 34.90 C 188.27 38.12 186.94 41.35 184.68 43.62 C 180.41 48.08 176.00 52.42 171.73 56.89 C 172.74 63.23 173.87 69.55 174.81 75.89 C 175.73 80.53 173.12 85.76 168.58 87.35 C 165.66 88.48 162.33 88.05 159.64 86.51 C 154.41 83.69 149.26 80.73 144.02 77.93 C 137.94 81.05 132.21 84.87 125.91 87.51 C 119.76 89.80 112.90 84.48 113.03 78.08 C 113.70 70.97 115.24 63.96 116.29 56.89 C 112.02 52.41 107.62 48.06 103.33 43.61 C 101.05 41.36 99.73 38.14 100.10 34.92 C 100.46 30.39 104.38 26.60 108.83 26.01 C 114.78 24.97 120.77 24.21 126.73 23.24 C 129.63 17.25 132.31 11.15 135.27 5.19 C 136.66 2.33 139.60 0.69 142.60 0.00 M 143.58 25.11 C 141.49 29.27 139.60 33.54 137.60 37.76 C 132.50 38.55 127.40 39.38 122.29 40.12 C 125.98 43.94 129.79 47.65 133.40 51.55 C 132.49 56.64 131.70 61.75 130.87 66.85 C 135.29 64.51 139.63 62.03 144.03 59.65 C 148.42 62.03 152.79 64.43 157.14 66.87 C 156.30 61.75 155.51 56.63 154.63 51.51 C 158.29 47.67 162.06 43.94 165.72 40.09 C 160.63 39.29 155.52 38.59 150.43 37.76 C 148.38 33.54 146.52 29.24 144.41 25.06 C 144.20 25.07 143.79 25.10 143.58 25.11 Z" />
<path fill="#000000" opacity="1.00" d=" M 221.30 64.12 C 226.00 46.93 242.26 33.87 259.89 32.19 C 271.57 31.27 283.32 35.42 292.55 42.49 C 304.60 51.95 311.58 66.23 316.33 80.47 C 321.95 97.80 324.61 115.92 326.41 134.00 C 326.55 143.40 324.59 152.67 323.13 161.91 C 318.85 185.49 313.63 208.90 307.16 231.97 C 362.09 232.04 417.03 231.97 471.96 232.00 C 482.68 232.03 494.17 234.25 502.28 241.75 C 508.65 247.50 511.56 256.11 512.00 264.51 L 512.00 269.01 C 511.03 284.51 501.01 298.88 486.76 305.07 C 495.48 314.32 499.85 327.52 497.90 340.13 C 495.90 355.01 485.21 368.13 471.20 373.41 C 480.35 383.31 484.44 397.64 481.49 410.84 C 478.44 426.05 466.23 438.74 451.26 442.69 C 458.05 450.79 461.84 461.39 461.25 471.99 C 460.76 484.79 453.93 497.10 443.41 504.39 C 437.17 508.82 429.69 511.29 422.09 512.00 L 182.04 512.00 C 174.09 509.77 166.79 505.71 160.16 500.86 C 154.74 497.29 149.00 493.19 142.23 493.18 C 138.31 503.56 128.34 511.15 117.24 512.00 L 26.69 512.00 C 12.80 510.97 0.96 499.11 0.00 485.22 L 0.00 266.98 C 0.83 252.62 13.53 240.13 27.99 240.05 C 57.35 239.96 86.71 239.96 116.07 240.05 C 129.78 240.18 141.91 251.39 143.76 264.87 C 145.46 263.57 147.49 262.54 148.69 260.70 C 162.81 236.56 177.86 212.97 191.68 188.66 C 199.90 174.31 208.13 159.94 215.01 144.89 C 217.17 139.82 219.77 134.65 219.66 129.01 C 219.54 119.01 219.84 109.00 219.30 99.00 C 218.81 87.38 218.03 75.44 221.30 64.12 M 237.98 64.95 C 234.32 73.45 234.74 82.95 235.00 92.01 C 235.77 105.43 235.76 118.88 235.52 132.31 C 233.96 143.74 228.29 154.06 223.35 164.33 C 205.36 198.98 184.43 231.97 164.39 265.44 C 162.74 268.09 161.71 271.26 159.15 273.23 C 154.38 277.17 149.13 280.45 144.01 283.90 C 144.03 348.35 143.97 412.80 144.04 477.25 C 159.67 477.44 170.10 490.95 184.01 495.82 C 261.32 496.05 338.65 495.95 415.96 496.01 C 421.13 496.18 426.45 495.63 431.09 493.18 C 440.64 488.51 446.53 477.53 445.14 466.99 C 444.02 455.90 434.93 446.21 423.91 444.49 C 420.92 443.97 417.41 444.25 415.16 441.83 C 411.68 438.66 412.01 432.50 415.83 429.75 C 419.29 427.11 423.90 428.34 427.92 428.07 C 435.57 427.76 443.67 429.19 450.87 425.88 C 461.13 421.53 467.75 410.07 466.23 399.01 C 465.11 388.26 456.54 378.79 445.92 376.72 C 442.40 376.00 438.10 376.46 435.68 373.25 C 431.76 369.01 434.38 361.29 440.08 360.34 C 446.39 359.76 452.76 360.49 459.08 359.95 C 466.80 359.23 474.03 354.75 478.19 348.23 C 483.15 340.66 483.71 330.44 479.52 322.41 C 475.96 315.28 468.94 310.01 461.08 308.65 C 457.94 308.25 454.82 306.42 453.82 303.28 C 452.06 298.90 455.11 293.48 459.77 292.74 C 465.45 292.07 471.31 293.25 476.88 291.58 C 487.03 288.90 494.91 279.54 495.85 269.09 C 496.36 263.66 495.68 257.47 491.40 253.61 C 485.90 248.67 478.06 248.01 471.01 248.01 C 412.99 247.98 354.97 248.03 296.95 247.99 C 291.67 248.63 286.74 243.32 288.30 238.12 C 293.61 224.54 296.45 210.16 299.88 196.03 C 303.41 180.60 306.67 165.10 309.17 149.47 C 309.99 143.71 311.01 137.85 310.19 132.03 C 308.05 113.12 305.20 93.97 297.66 76.35 C 293.78 67.60 288.59 58.92 280.44 53.52 C 274.66 49.84 267.75 47.59 260.85 48.17 C 251.09 49.43 242.04 55.95 237.98 64.95 M 25.37 256.53 C 21.38 257.65 18.06 260.82 16.73 264.74 C 15.64 268.06 16.10 271.62 16.00 275.06 C 16.02 342.71 16.02 410.35 16.00 478.00 C 16.07 481.81 15.63 485.94 17.67 489.36 C 20.01 493.74 25.02 496.24 29.92 496.00 C 58.32 495.97 86.72 496.04 115.12 495.97 C 122.02 496.11 128.17 489.94 127.97 483.04 C 128.02 411.67 128.03 340.29 127.96 268.92 C 128.17 262.01 121.95 255.84 115.05 256.03 C 87.05 255.96 59.05 256.05 31.05 255.98 C 29.15 256.01 27.21 255.99 25.37 256.53 Z" />
<path fill="#000000" opacity="1.00" d=" M 58.37 85.40 C 62.25 78.33 73.69 78.31 77.62 85.34 C 83.03 96.25 87.90 107.43 93.33 118.34 C 103.92 119.81 114.48 121.47 125.05 123.10 C 128.75 123.54 132.32 125.49 134.29 128.71 C 137.23 133.23 136.07 139.59 132.31 143.30 C 124.42 151.46 116.40 159.50 108.51 167.66 C 110.40 179.28 112.35 190.89 114.19 202.51 C 115.11 207.85 111.91 213.85 106.61 215.44 C 103.33 216.55 99.69 215.98 96.74 214.25 C 87.17 208.97 77.60 203.68 68.02 198.42 C 58.66 203.59 49.30 208.75 39.93 213.90 C 36.58 215.81 32.38 216.75 28.68 215.24 C 23.64 213.21 20.84 207.27 21.89 202.02 C 23.74 190.56 25.63 179.11 27.51 167.65 C 19.61 159.49 11.61 151.42 3.70 143.28 C 1.69 141.33 0.61 138.70 0.00 136.03 L 0.00 133.73 C 0.52 128.54 4.76 124.04 9.94 123.31 C 20.87 121.61 31.82 120.00 42.76 118.28 C 48.10 107.38 53.02 96.29 58.37 85.40 M 67.67 103.12 C 62.96 112.98 58.37 122.89 53.69 132.76 C 42.72 134.54 31.71 136.12 20.73 137.81 C 28.68 145.95 36.66 154.06 44.59 162.21 C 42.79 173.51 40.88 184.80 39.08 196.10 C 48.72 190.79 58.38 185.51 68.00 180.16 C 77.68 185.39 87.28 190.78 96.94 196.06 C 95.11 184.78 93.24 173.51 91.43 162.23 C 99.35 154.09 107.37 146.05 115.21 137.83 C 104.26 136.09 93.29 134.45 82.33 132.77 C 77.68 122.89 73.07 112.99 68.37 103.14 C 68.19 103.14 67.84 103.13 67.67 103.12 Z" />
<path fill="#000000" opacity="1.00" d=" M 66.40 416.57 C 81.56 413.04 97.86 424.53 99.69 439.95 C 102.24 454.64 90.97 469.82 76.18 471.66 C 61.46 474.31 46.19 463.01 44.34 448.19 C 41.79 433.96 52.22 419.14 66.40 416.57 M 68.38 432.60 C 63.51 434.08 59.95 438.95 60.04 444.05 C 59.87 450.81 66.35 456.71 73.07 455.92 C 79.85 455.49 85.18 448.52 83.79 441.87 C 82.74 434.99 74.98 430.25 68.38 432.60 Z" />
</g>
</svg>
