<svg xmlns="http://www.w3.org/2000/svg" viewBox="0 0 512 421.51"><defs><style>.cls-1{fill:none;stroke:#000;stroke-miterlimit:10;stroke-width:11px;}.cls-2{font-size:37px;}.cls-2,.cls-3{font-family:OpenSans-Bold, Open Sans;font-weight:700;}.cls-3{font-size:59.22px;}</style></defs><g id="Layer_2" data-name="Layer 2"><g id="Layer_1-2" data-name="Layer 1"><g id="_000000ff" data-name="#000000ff"><path d="M24.09,1.82C29.52,0,35.31-.06,41,0q217.49,0,435,0c15.81-.4,31.26,10.11,36.08,25.28v396.2q-256,0-512,0V24.6A38.21,38.21,0,0,1,24.09,1.82m-7.4,18.34a26.31,26.31,0,0,0-6.43,17.17c0,10.14,0,20.28,0,30.42q246.15,0,492.29,0c0-9.48,0-19,0-28.45C503.5,25.17,491.26,11.83,477,11.9H35a24.57,24.57,0,0,0-18.26,8.26M10.23,408.88q246.15,0,492.31,0,0-165,0-330.06-246.14,0-492.28,0Q10.19,243.84,10.23,408.88Z"/><path d="M48.05,33.92q151.64,0,303.25,0c0,3.93,0,7.87,0,11.8q-151.62,0-303.25,0Q48,39.83,48.05,33.92Z"/><path d="M388.34,45.75c0-3.94,0-7.89,0-11.84,3.94,0,7.87,0,11.81,0,0,3.94,0,7.87,0,11.81C396.2,45.74,392.27,45.72,388.34,45.75Z"/><path d="M418.25,45.7c0-3.94,0-7.87,0-11.8l11.78,0c0,3.94,0,7.88,0,11.82C426.14,45.74,422.2,45.75,418.25,45.7Z"/><path d="M448.2,33.93c3.94,0,7.88,0,11.83,0,0,3.94,0,7.88,0,11.81l-11.81,0C448.19,41.8,448.19,37.87,448.2,33.93Z"/><rect class="cls-1" x="32.3" y="109.36" width="326.7" height="92"/><rect class="cls-1" x="388.32" y="109.36" width="94.68" height="92"/><text class="cls-2" transform="translate(56 166.36)">fnb/3u.gg/open</text><text class="cls-3" transform="translate(32.3 310.58)">fnb/3u.gg/open</text></g></g></g></svg>