<svg xmlns="http://www.w3.org/2000/svg" viewBox="0 0 312.62 378.64"><defs><style>.cls-1{fill:#00abe1;}</style></defs><g id="Layer_2" data-name="Layer 2"><g id="Layer_1-2" data-name="Layer 1"><path class="cls-1" d="M169.54,107.56v15a7,7,0,0,1-2.12,5.07,7.09,7.09,0,0,1-5,2.2h-.29a7.38,7.38,0,0,1-7.18-7.26V99.13c0-30.11,0-61.25,0-91.94A7.25,7.25,0,0,1,160.1.38l.3-.09A5.81,5.81,0,0,1,162.21,0a7.36,7.36,0,0,1,4.36,1.54,6.83,6.83,0,0,1,3,5.55v.19C169.56,40.7,169.55,74.69,169.54,107.56Z"/><path class="cls-1" d="M167.87,165.49a6.93,6.93,0,0,1-4.9,2.68l-.3,0a6.87,6.87,0,0,1-5-1.64A7,7,0,0,1,155,161.9l0-.29a7.39,7.39,0,0,1,5.61-7.76l.21,0a5.64,5.64,0,0,1,1.42-.18,7.27,7.27,0,0,1,4.16,1.4,6.86,6.86,0,0,1,3,4.84l0,.33A6.86,6.86,0,0,1,167.87,165.49Z"/><path class="cls-1" d="M169.5,189.67l0,.42a6.89,6.89,0,0,1-3,5.13,7,7,0,0,1-5.91,1.2l-.31-.08a7,7,0,0,1-4.47-3.8,6.83,6.83,0,0,1-.31-5.8l.08-.2a7.3,7.3,0,0,1,5.17-4.31l.24,0a5.63,5.63,0,0,1,1.36-.17,7.27,7.27,0,0,1,4.72,1.92A6.75,6.75,0,0,1,169.5,189.67Z"/><path class="cls-1" d="M168.67,221.06a6.8,6.8,0,0,1-4.28,3.63l-.31.09a6.86,6.86,0,0,1-5.37-.73,7.06,7.06,0,0,1-3.49-4.39l-.06-.21a7.38,7.38,0,0,1,4.35-8.45l.21-.08a5.91,5.91,0,0,1,2.38-.47,7.43,7.43,0,0,1,3.08.68,7,7,0,0,1,3.86,4l.09.25A6.93,6.93,0,0,1,168.67,221.06Z"/><path class="cls-1" d="M169.54,343.58l0,27.78v.17a6.9,6.9,0,0,1-2.13,5,7,7,0,0,1-5,2.16h-.29a7,7,0,0,1-5-2.16,6.85,6.85,0,0,1-2.15-4.93v-.13q-.06-49.44,0-98.88V256.18a7.36,7.36,0,0,1,5.16-7l.27-.08a5.53,5.53,0,0,1,1.81-.29,7.44,7.44,0,0,1,4.21,1.4,6.83,6.83,0,0,1,3.09,5.23C169.57,284.81,169.55,314.68,169.54,343.58Z"/><path class="cls-1" d="M118.67,192.5q0,31.58-15.91,49.32t-44,17.73q-17.31,0-30.75-8.13A53.65,53.65,0,0,1,7.31,228.09Q0,212.88,0,192.5q0-31.59,15.79-49.2t43.84-17.62q27.1,0,43.07,18T118.67,192.5Zm-98.4,0q0,24.75,9.9,37.71t29.11,13q19.2,0,29.16-12.9t10-37.77q0-24.63-10-37.42T59,142.3q-19.22,0-29,12.6T20.27,192.5Z"/><path class="cls-1" d="M312.62,214q0,38.31-13.08,56.92t-40.89,18.62q-27.46,0-40.66-18.21T204.32,217V187.85q0-37.83,13.08-56.21t41-18.38q27.69,0,40.77,17.73t13.44,54.74Zm-21.8-29.81q0-27.69-7.78-40.36t-24.63-12.67q-16.74,0-24.39,12.61t-7.9,38.77v34.88q0,27.81,8.07,41.07t24.46,13.26q16.14,0,24-12.5t8.19-39.36Z"/></g></g></svg>