<?xml version="1.0" encoding="UTF-8" ?>
<!DOCTYPE svg PUBLIC "-//W3C//DTD SVG 1.1//EN" "http://www.w3.org/Graphics/SVG/1.1/DTD/svg11.dtd">
<svg width="512pt" height="512pt" viewBox="0 0 512 512" version="1.1" xmlns="http://www.w3.org/2000/svg">
<g id="#000000ff">
<path fill="#000000" opacity="1.00" d=" M 32.80 185.80 C 46.01 169.89 66.33 160.15 87.03 160.02 C 116.70 159.97 146.38 160.00 176.05 160.01 C 190.59 160.00 205.11 164.51 217.02 172.86 C 232.77 183.73 243.88 201.12 246.97 220.02 C 248.40 227.93 247.92 236.00 248.00 244.00 C 247.89 258.57 249.13 273.58 244.00 287.54 C 247.57 291.17 251.30 294.64 254.72 298.41 C 257.39 301.40 257.06 306.35 254.18 309.08 C 246.71 316.64 239.18 324.16 231.63 331.65 C 229.03 334.37 224.49 334.88 221.45 332.63 C 218.66 330.40 216.37 327.63 213.75 325.21 C 202.72 331.93 189.93 335.79 176.99 335.96 C 164.99 336.06 153.00 335.97 141.00 336.01 C 134.00 344.83 134.42 358.53 142.25 366.71 C 162.33 386.97 182.59 407.06 202.71 427.27 C 205.70 430.39 209.06 433.30 213.15 434.83 C 221.97 438.44 232.75 436.26 239.48 429.51 C 247.13 421.84 254.84 414.22 262.42 406.49 C 269.98 398.61 270.94 385.42 264.54 376.57 C 262.88 374.05 260.09 372.11 259.59 368.97 C 259.01 366.14 260.26 363.27 262.33 361.37 C 269.16 354.51 276.05 347.71 282.86 340.83 C 285.67 337.08 291.46 335.60 295.20 338.87 C 307.76 350.88 315.39 367.77 316.60 385.07 C 318.11 405.06 310.78 425.51 296.85 439.94 C 288.93 447.97 280.92 455.92 272.93 463.89 C 261.45 475.34 245.98 482.71 229.84 484.36 C 212.08 486.34 193.68 481.34 179.36 470.66 C 173.78 466.64 169.17 461.51 164.29 456.73 C 145.62 438.03 126.89 419.39 108.26 400.66 C 91.88 383.93 84.67 358.93 89.52 336.03 C 73.98 336.25 58.37 331.50 45.81 322.28 C 29.84 310.83 18.94 292.57 16.58 273.05 C 15.40 260.05 16.26 246.96 16.00 233.93 C 15.55 216.55 21.57 199.09 32.80 185.80 M 36.68 209.68 C 33.29 217.31 31.90 225.71 32.00 234.03 C 32.05 244.37 31.92 254.72 32.06 265.06 C 32.26 280.08 38.91 294.85 49.97 305.01 C 60.16 314.55 73.99 319.95 87.94 319.98 C 117.28 320.02 146.63 319.99 175.98 319.99 C 185.04 319.99 194.04 317.70 202.05 313.49 C 198.92 310.12 195.36 306.95 190.93 305.44 C 186.49 303.65 181.65 303.99 176.98 304.01 C 147.64 303.99 118.30 304.02 88.96 304.00 C 81.25 304.08 73.50 302.08 66.96 297.96 C 55.68 291.07 48.26 278.29 48.05 265.05 C 47.93 254.03 48.02 243.02 48.01 232.00 C 47.98 220.31 53.37 208.78 62.38 201.34 C 69.48 195.34 78.71 192.03 87.99 192.01 C 117.34 192.00 146.69 191.97 176.04 192.02 C 186.04 192.01 195.98 195.93 203.26 202.79 C 211.02 209.98 215.73 220.35 215.95 230.94 C 216.10 242.01 215.93 253.09 216.02 264.16 C 221.39 267.10 226.41 270.65 230.97 274.73 C 232.39 266.91 231.94 258.94 231.99 251.04 C 231.84 242.35 232.42 233.61 231.49 224.95 C 229.22 205.44 215.74 187.82 197.59 180.37 C 190.17 177.19 182.04 175.91 174.00 176.00 C 144.99 176.05 115.98 175.93 86.96 176.05 C 65.52 176.18 45.05 189.98 36.68 209.68 M 64.50 227.12 C 63.48 235.01 64.23 243.02 64.00 250.97 C 64.39 258.60 62.76 266.73 66.15 273.90 C 69.84 282.31 78.74 288.07 87.93 287.98 C 98.87 288.02 109.81 287.98 120.76 288.00 C 129.07 279.85 136.83 270.77 147.26 265.23 C 163.07 256.17 182.36 253.76 200.00 258.17 C 200.00 249.44 200.00 240.72 199.99 231.99 C 200.33 218.78 188.14 207.12 174.96 208.00 C 145.96 208.02 116.97 207.98 87.98 208.02 C 76.93 207.80 66.56 216.27 64.50 227.12 M 143.43 287.99 C 155.28 287.99 167.13 288.01 178.97 287.99 C 185.88 287.94 192.92 288.86 199.23 291.78 C 210.21 296.66 217.27 306.87 225.94 314.73 C 229.72 310.99 233.44 307.21 237.22 303.47 C 232.02 298.13 226.73 292.87 221.40 287.65 C 211.95 278.52 199.21 272.87 186.07 272.14 C 170.45 271.05 154.59 277.04 143.43 287.99 M 106.04 336.00 C 100.88 354.55 106.17 375.53 119.58 389.36 C 139.69 409.59 159.92 429.69 180.06 449.90 C 185.06 455.02 190.65 459.68 197.12 462.83 C 214.23 471.58 235.83 470.53 252.02 460.18 C 259.94 455.25 265.96 448.02 272.62 441.62 C 280.50 433.45 289.63 426.04 294.67 415.62 C 304.32 397.09 302.27 373.34 289.70 356.68 C 285.83 360.45 282.02 364.30 278.21 368.14 C 287.61 382.15 286.81 401.99 276.10 415.07 C 270.88 421.15 264.88 426.51 259.31 432.28 C 253.48 437.85 248.29 444.37 240.98 448.10 C 226.19 456.25 206.43 453.47 194.44 441.58 C 173.38 420.62 152.39 399.58 131.39 378.56 C 120.48 367.66 117.06 350.30 122.73 335.99 C 117.16 336.00 111.60 336.00 106.04 336.00 Z" />
<path fill="#000000" opacity="1.00" d=" M 325.54 160.77 C 329.35 160.20 333.20 160.00 337.05 159.99 C 366.38 160.02 395.70 159.96 425.02 160.02 C 447.14 160.16 468.78 171.31 481.81 189.16 C 491.87 202.50 496.69 219.40 496.00 236.03 C 495.47 251.47 497.59 267.26 493.59 282.39 C 489.13 299.46 478.09 314.67 463.30 324.28 C 451.71 331.92 437.86 335.97 423.99 336.00 C 394.67 336.00 365.35 336.02 336.03 335.99 C 320.20 336.02 304.41 330.64 291.95 320.88 C 278.08 310.22 268.33 294.33 265.21 277.11 C 263.52 268.52 264.09 259.74 264.00 251.04 C 264.18 237.39 262.86 223.32 267.39 210.17 C 275.34 184.44 298.83 164.40 325.54 160.77 M 327.49 176.69 C 314.66 178.64 302.60 185.23 294.05 195.00 C 285.05 205.07 280.03 218.51 280.02 232.01 C 280.06 243.69 279.86 255.38 280.13 267.07 C 281.01 287.27 293.94 306.23 312.28 314.67 C 320.27 318.45 329.15 320.15 337.97 319.99 C 367.34 319.94 396.71 320.11 426.08 319.91 C 448.23 319.37 469.04 304.24 476.47 283.38 C 480.99 272.14 479.86 259.86 480.00 248.03 C 479.81 237.11 480.91 225.89 477.42 215.33 C 471.97 197.52 457.04 182.97 439.04 178.11 C 432.57 176.19 425.78 175.92 419.08 176.00 C 393.41 176.02 367.73 175.99 342.06 176.01 C 337.20 175.98 332.31 175.93 327.49 176.69 Z" />
<path fill="#000000" opacity="1.00" d=" M 328.42 192.73 C 331.91 192.08 335.48 191.98 339.03 191.99 C 367.34 192.01 395.65 191.97 423.96 192.02 C 433.25 192.01 442.52 195.33 449.62 201.34 C 458.36 208.57 463.72 219.66 463.95 231.01 C 464.10 238.32 463.94 245.64 464.01 252.96 C 463.94 261.16 464.62 269.65 461.63 277.47 C 456.34 292.69 441.14 303.79 424.99 303.95 C 395.65 304.08 366.32 303.97 336.98 304.00 C 327.83 304.13 318.64 301.19 311.44 295.50 C 301.83 288.12 295.98 276.17 296.01 264.06 C 296.07 252.35 295.80 240.62 296.16 228.92 C 297.19 211.40 311.19 195.86 328.42 192.73 M 330.46 208.66 C 320.27 210.92 312.29 220.49 312.05 230.95 C 311.94 241.98 312.02 253.02 312.02 264.05 C 311.93 272.75 317.06 281.18 324.76 285.18 C 328.77 287.41 333.43 288.12 337.97 288.01 C 367.00 287.94 396.03 288.07 425.05 287.95 C 437.09 287.72 447.70 277.09 447.94 265.06 C 448.06 254.37 447.97 243.68 447.99 233.00 C 448.83 219.87 437.27 207.68 424.08 208.01 C 395.05 207.98 366.02 208.03 336.98 207.99 C 334.79 208.01 332.59 208.15 330.46 208.66 Z" />
</g>
</svg>
