<svg xmlns="http://www.w3.org/2000/svg" viewBox="0 0 111.75 88.13"><defs><style>.cls-1{fill:#00abe1;}</style></defs><g id="Layer_2" data-name="Layer 2"><g id="Layer_1-2" data-name="Layer 1"><g id="Sustainable_recycling" data-name="Sustainable recycling"><path class="cls-1" d="M53.13,6.27,48.21,13a.85.85,0,0,1-.56.34.84.84,0,0,1-.95-.71L46,8.07l-1.56.33A53.51,53.51,0,0,0,5.84,80.32L8.6,86.6H6.3L3.88,81.08A55.6,55.6,0,0,1,44.27,6.29L45.67,6l-.78-5A.81.81,0,0,1,45,.35.87.87,0,0,1,45.59,0a.82.82,0,0,1,.62.16L52.94,5.1A.84.84,0,0,1,53.13,6.27Z"/><path class="cls-1" d="M111.68,84.42a.83.83,0,0,1-.47.45l-7.7,3.2a.83.83,0,0,1-1.09-.45l-3.23-7.69a.91.91,0,0,1,0-.65.84.84,0,0,1,.78-.51,1,1,0,0,1,.32.06l4.39,1.8.55-1.43A53.52,53.52,0,0,0,67.09,8l.4-2.05a55.61,55.61,0,0,1,39.66,74.13l-.53,1.37,4.59,1.88h0a.83.83,0,0,1,.46.46A.82.82,0,0,1,111.68,84.42Z"/></g><g id="_1d74b7ff" data-name="#1d74b7ff"><path class="cls-1" d="M78.3,71.91h2.11c0,5.27,0,10.54,0,15.81H78.3Z"/><path class="cls-1" d="M31.12,75.62h2.21C33.88,77.3,34.41,79,35,80.68q.74-2.54,1.45-5.06h1.78c.49,1.69,1,3.38,1.47,5.07.55-1.68,1.08-3.38,1.62-5.07.74,0,1.48,0,2.22,0q-1.41,4.14-2.81,8.26H38.78c-.5-1.71-1-3.42-1.47-5.13-.5,1.71-1,3.42-1.47,5.13h-1.9Z"/><path class="cls-1" d="M44.6,75.62c.74,0,1.48,0,2.22,0,.54,1.68,1.07,3.38,1.62,5.06q.73-2.52,1.45-5.06h1.78c.49,1.69,1,3.38,1.47,5.07.55-1.68,1.08-3.37,1.62-5.06H57c-.94,2.76-1.87,5.51-2.81,8.26H52.26c-.49-1.71-1-3.42-1.47-5.13-.5,1.7-1,3.41-1.46,5.12-.64,0-1.27,0-1.91,0Z"/><path class="cls-1" d="M58.09,75.62h2.19c.58,1.68,1.09,3.39,1.65,5.07.5-1.68,1-3.38,1.46-5.07h1.76c.5,1.68,1,3.38,1.48,5.06.55-1.69,1.07-3.39,1.63-5.07h2.2l-2.8,8.25H65.74Q65,81.3,64.28,78.75c-.52,1.7-1,3.41-1.48,5.12-.63,0-1.28,0-1.89,0C60,81.1,59,78.35,58.09,75.62Z"/><path class="cls-1" d="M73.1,81.39a1.34,1.34,0,1,1-.47,2.28A1.36,1.36,0,0,1,73.1,81.39Z"/></g><g id="_414042ff" data-name="#414042ff"><path class="cls-1" d="M95.49,63.91a1.31,1.31,0,0,1-1.37.85H18.39a1.22,1.22,0,0,1-1.31-1.22,38.68,38.68,0,0,1,.9-8.38A39.29,39.29,0,0,1,46.56,25.52H66.07A39.25,39.25,0,0,1,95.49,61.46v2.45M93.07,62.3a36.7,36.7,0,0,0-8.31-22.08A39.21,39.21,0,0,1,76,47.14,64.32,64.32,0,0,1,78.29,62.3H93.07m-17.23,0a62.66,62.66,0,0,0-2-14,39.14,39.14,0,0,1-16.32,4.13V62.3H75.84M55,62.3c0-3.28,0-6.55,0-9.83a39.53,39.53,0,0,1-16.31-4.11,62.58,62.58,0,0,0-2,13.94H55m-20.8,0A65.14,65.14,0,0,1,36.5,47.16a39.67,39.67,0,0,1-8.69-6.89,36.74,36.74,0,0,0-8.26,22H34.23M73.1,46a35.43,35.43,0,0,0-6.93-12.87,14.42,14.42,0,0,0-8.68-5q0,11,0,22A36.64,36.64,0,0,0,73.1,46M55,50q0-11,0-22a12.68,12.68,0,0,0-6.23,2.74A23.3,23.3,0,0,0,43.48,37a40.3,40.3,0,0,0-4,9A36.85,36.85,0,0,0,55,50m28.1-11.65A36.83,36.83,0,0,0,63,27.35a20.74,20.74,0,0,1,5.85,5.07,38.72,38.72,0,0,1,6.46,12.31,36.92,36.92,0,0,0,7.84-6.36M37.24,44.74a38.82,38.82,0,0,1,6.59-12.49,20.4,20.4,0,0,1,5.7-4.89A36.88,36.88,0,0,0,29.44,38.42,36.21,36.21,0,0,0,37.24,44.74Z"/></g></g></g></svg>