<svg xmlns="http://www.w3.org/2000/svg" viewBox="0 0 448.11 460.04"><defs><style>.cls-1{fill:#252d32;}.cls-2{fill:#fff;}.cls-3{fill:#fefefe;}.cls-4{fill:#dbe5f5;}.cls-5{fill:#4c4c4c;}</style></defs><g id="Layer_2" data-name="Layer 2"><g id="Layer_1-2" data-name="Layer 1"><path class="cls-1" d="M262.68,14.63a26,26,0,0,1,48.38,18.48,26.45,26.45,0,0,1-18.88,18.2c-.32,33.9,0,67.8-.15,101.71a74.29,74.29,0,0,1-4.27,22.89c45.46.24,90.92,0,136.38.14,12.95.12,24.28,12,23.92,24.9q.06,122.52,0,245.05c-.06,3.23.25,6.51-.3,9.73-.72,2.9-3.81,4.51-6.65,4.27Q224.05,460,7,460a6.27,6.27,0,0,1-6.92-6.92Q0,331,0,209c0-6-.56-12.35,2.06-18A25.11,25.11,0,0,1,25,176q67.6,0,135.21,0A76.87,76.87,0,0,1,156,150c.1-17.34-.1-34.69.08-52-.26-4.77,6-7.86,9.63-4.66,5.14,4.25-.42,12.32,4.23,16.78,6.67,7.67,13.26,15.41,19.9,23.11,1.76,1.9,2.91,4.73,1.65,7.22-1.51,3.7-7,4.86-9.63,1.76-4.81-5-8.84-10.66-13.74-15.55-.19,8.79-.1,17.59-.07,26.39a57.87,57.87,0,0,0,5.19,22.84c15.59.33,31.18,0,46.78.14,18.24-.11,36.49.2,54.72-.15,3.17-7.55,5.36-15.6,5.27-23.85-.06-33.56.15-67.14-.11-100.7a26.75,26.75,0,0,1-15-10.17A26,26,0,0,1,262.68,14.63Zm19.72-2.16A14,14,0,0,0,286.05,40c8.2.27,15.28-7.86,13.85-16C299,16,290.17,10.11,282.4,12.47ZM12.07,200.92c-.05,11.69,0,23.38,0,35.07q106,0,212,0c70.62-.08,141.23.17,211.84-.16-.08-11.64,0-23.28,0-34.91.34-6.45-5.32-12.56-11.76-12.68-5.36-.13-10.71-.18-16.06-.26-75.5.11-151-.17-226.5.14,9.72,12.09,25.06,19.35,40.52,19.81,2.61,0,5.7.4,7.09,3,2.53,3.69-.64,9.25-5.09,9-22.11.28-43.92-11.36-56.16-29.76a3.68,3.68,0,0,0-3.8-2.19Q94.54,188,25,188A12.91,12.91,0,0,0,12.07,200.92Zm0,43.08q0,94,0,188c-.05,5.34,0,10.67,0,16q212,0,424,0,.06-102,0-204c-5.35,0-10.69,0-16,0Q216,243.94,12.05,244Z"/><path class="cls-1" d="M42.4,272.36A16.54,16.54,0,0,1,47,272c40.35.09,80.71-.06,121.05.08,2.66-.19,4.32,2.46,4,4.88q0,69.06,0,138.13a4.3,4.3,0,0,1-4.94,4.94c-41,0-82.05.07-123.07-.05-2.64.18-4.32-2.48-4-4.89Q40,346.5,40,277.93C40,275.88,40.12,273.19,42.4,272.36ZM48.06,280q0,66,0,132,58,0,116,0,0-66,0-132Q106,279.94,48.06,280Z"/><path class="cls-1" d="M202.4,272.36A12,12,0,0,1,206,272q98.57.06,197.14,0c1.81-.12,3.94.5,4.6,2.4a4,4,0,0,1-3.67,5.55c-66,.12-132,0-198.07.06-1.84,0-4.18.08-5.23-1.76A4,4,0,0,1,202.4,272.36Z"/><path class="cls-1" d="M202.4,312.36A11.65,11.65,0,0,1,206,312q97.05,0,194.09,0c2.61.11,6.43-.66,7.65,2.43,1.43,2.95-1.52,6.2-4.61,5.6-66.35,0-132.71.06-199.07-.06C199.85,320.3,198.53,313.78,202.4,312.36Z"/><path class="cls-1" d="M202.4,352.36A16.54,16.54,0,0,1,207,352c25.68.09,51.37-.07,77.06.08,3.12-.23,5.14,3.76,3.3,6.22-1.06,1.83-3.42,1.72-5.25,1.76-26-.1-52.06.06-78.08-.08C199.85,360.3,198.53,353.78,202.4,352.36Z"/><path class="cls-2" d="M12.07,200.92A12.91,12.91,0,0,1,25,188q69.57-.06,139.14,0a3.68,3.68,0,0,1,3.8,2.19c12.24,18.4,34.05,30,56.16,29.76,4.45.21,7.62-5.35,5.09-9-1.39-2.57-4.48-2.93-7.09-3-15.46-.46-30.8-7.72-40.52-19.81,75.49-.31,151,0,226.5-.14,5.35.08,10.7.13,16.06.26,6.44.12,12.1,6.23,11.76,12.68,0,11.63-.06,23.27,0,34.91-70.61.33-141.22.08-211.84.16s-141.32,0-212,0C12,224.3,12,212.61,12.07,200.92Z"/><path class="cls-3" d="M12.05,244q204,0,408,0c0,62.63.07,125.27,0,187.9q-204,.19-407.9.05Q12,338,12.05,244ZM42.4,272.36c-2.28.83-2.44,3.52-2.37,5.57q.06,68.57,0,137.13c-.34,2.41,1.34,5.07,4,4.89,41,.12,82.05,0,123.07.05a4.3,4.3,0,0,0,4.94-4.94q0-69.06,0-138.13c.34-2.42-1.32-5.07-4-4.88-40.34-.14-80.7,0-121-.08A16.54,16.54,0,0,0,42.4,272.36Zm160,0a4,4,0,0,0-1.65,5.9c1.05,1.84,3.39,1.74,5.23,1.76,66-.07,132,.06,198.07-.06a4,4,0,0,0,3.67-5.55c-.66-1.9-2.79-2.52-4.6-2.4q-98.58,0-197.14,0A12,12,0,0,0,202.4,272.36Zm0,40c-3.87,1.42-2.55,7.94,1.64,7.59,66.36.12,132.72,0,199.07.06,3.09.6,6-2.65,4.61-5.6-1.22-3.09-5-2.32-7.65-2.43Q303,312,206,312A11.65,11.65,0,0,0,202.4,312.36Zm0,40c-3.87,1.42-2.55,7.94,1.64,7.59,26,.14,52,0,78.08.08,1.83,0,4.19.07,5.25-1.76,1.84-2.46-.18-6.45-3.3-6.22-25.69-.15-51.38,0-77.06-.08A16.54,16.54,0,0,0,202.4,352.36Z"/><path class="cls-4" d="M420,244c5.34-.05,10.68,0,16,0q0,102,0,204-212,.06-424,0c0-5.35,0-10.68,0-16q203.94,0,407.9-.05C420.1,369.3,420,306.66,420,244Z"/><path class="cls-5" d="M48.06,280q58,0,116,0,.09,66,0,132-58,0-116,0Q48,346,48.06,280Z"/></g></g></svg>