<svg xmlns="http://www.w3.org/2000/svg" viewBox="0 0 401.78 253.79"><defs><style>.cls-1{font-size:20px;font-family:OpenSans-SemiBold, Open Sans;font-weight:600;}.cls-1,.cls-2,.cls-3{fill:#00abe1;}.cls-2{stroke:#00abe1;stroke-miterlimit:10;stroke-width:3px;}</style></defs><g id="Layer_2" data-name="Layer 2"><g id="Layer_1-2" data-name="Layer 1"><text class="cls-1" transform="translate(12.65 46.92)">3u.gg/fnb</text><path class="cls-2" d="M326.58,54.84a54.48,54.48,0,0,1-8.11,17.57,1.7,1.7,0,0,1-1.36.17c-.52-.13-1.12-.45-1.24-.9l-.06-.24c-.26-.82.39-2,1.83-4.25a27.11,27.11,0,0,0,2.85-5.43c5.54-11.91,4.36-26.93-3.11-39.28l-.23-.35c-6.2-8.76-15.47-13-22.15-15l-.32-.1-.33-.06a40.12,40.12,0,0,0-34.12,9.9A25.25,25.25,0,0,0,257,20.23c-.85,1-1.8,2.17-2.36,2.31l-.23.06a2.06,2.06,0,0,1-1.94-1.08l-.17-.26c-8.24-12.1-24.22-18.49-38.92-15.62-9.9,1-19.35,6.82-25.31,15.6A22.9,22.9,0,0,0,186,25a9.4,9.4,0,0,1-1.41,2.42,1.49,1.49,0,0,1-1.26.29c-7.05-2.53-14.23-1.25-19-.06l-.27.07a1.79,1.79,0,0,1-1.95-.93l-.12-.28a1.87,1.87,0,0,1,.71-2A40.54,40.54,0,0,1,179.13,23l3.42.3,1.82-2.91A42.55,42.55,0,0,1,207,3.14c9.68-2.18,18.25-2.19,25.47,0l.1,0a42.24,42.24,0,0,1,18,10.53l3.8,3.72,3.91-3.6a43.57,43.57,0,0,1,39.09-9.87c5.39,2.3,10.47,4.49,14.6,7.84,5.59,4.56,9.14,9,10.87,13.52l.17.41a47.59,47.59,0,0,1,4.26,16c0,.84,0,1.7,0,2.56C327.4,48.08,327.46,51.68,326.58,54.84Z"/><path class="cls-2" d="M394.54,118.25a56.92,56.92,0,0,1-39.33,29.88l-.13,0c-5.3,1.17-10.84,1.12-16.71,1.08-1.89,0-3.84,0-5.78,0l-5,.07-.53,4.94a55.17,55.17,0,0,1-16.59,33.59A57.83,57.83,0,0,1,267,203.69l-3.39-.22-1.77,2.91A94.41,94.41,0,0,1,174.16,252a93.07,93.07,0,0,1-51.1-20.18c-20.14-16-32.94-40.62-34.24-65.77l-.1-1.33c-.59-7-1.13-13.68,1.45-19.21a1.74,1.74,0,0,1,1.31-.48,1.6,1.6,0,0,1,1.34.57l.24.39c.28.43-.12,2-.46,3.33a20,20,0,0,0-.87,6.92c.42,8.9.9,19,3.83,28.53a89.75,89.75,0,0,0,163.83,18.66l.14-.25c1.3-2.63,2.07-2.87,2.07-2.89,2-.1,3.95-.09,6.06-.09,4.84,0,9.84,0,15-1.26,21-4.43,38.12-22.72,40.76-43.58a27.22,27.22,0,0,0,.35-5.11c0-1.69,0-3.43.53-3.95l.17-.19c.44-.49,2.66-.44,4.14-.41.75,0,1.54,0,2.34,0,2.1-.05,4.21,0,6.43,0,6.37.08,13,.15,19.63-1.6A53.32,53.32,0,0,0,392.67,114c3.29-7.45,4.6-16.21,3.91-26l0-.37a37.55,37.55,0,0,0-18.77-27.17l-.14-.08c-.76-.39-1.34-.94-1.42-1.36l-.06-.24a41.26,41.26,0,0,0-23.81-27.48,24,24,0,0,0-5.55-1.56c-1.48-.28-3.15-.6-3.46-1.11l-.22-.33a1.62,1.62,0,0,1,.11-1.53,1.67,1.67,0,0,1,1-.93c5.89.36,12.12,2.79,18.51,7.24,7.17,6,11.7,11.55,14.22,17.58l.27.55a12.13,12.13,0,0,1,.51,1.31c.65,1.9,1.74,5,5,6.94A40.77,40.77,0,0,1,400,87C401,98.45,399.16,109.24,394.54,118.25Z"/><path class="cls-2" d="M287.48,149.44a1.6,1.6,0,0,1-.77,1.05l-.12.06c-.95.4-2.94-.35-4.86-1.06-.77-.3-1.56-.6-2.39-.86-5-2.29-10.62-5.1-14.43-9.37l-.24-.26-.27-.24c-5.73-4.95-9.64-11.83-12.42-17.28l-1.31-2.56-2.83-.44c-2.12-.32-4.25-.61-6.31-.88-6.17-.8-12-1.56-17.39-3.54l-.27-.09a50.63,50.63,0,0,1-13.39-6.74l-.21-.13c-11.68-7.18-20.55-19.63-24.36-34.2-.24-1.66-.52-3.28-.81-4.85A52.87,52.87,0,0,1,184,58.77a1.56,1.56,0,0,1,.59-1,1.6,1.6,0,0,1,1.13-.42l.28,0a1.73,1.73,0,0,1,1.4,1.36V59c.25,2.94.72,5.78,1.18,8.53.22,1.26.43,2.53.61,3.8l.08.39c1.56,7.07,5.09,14.17,10.77,21.72l.09.1c5.19,6.55,12,10.86,18,14.21l.06,0c7.68,4.15,15.93,5.28,23.91,6.38l7.39,1,0-6.48c0-5.88.17-12.12,1.93-17.88l0-.12a69.89,69.89,0,0,1,6.26-14.64,2,2,0,0,1,1.63-1h.17A1.83,1.83,0,0,1,261,76.43l0,.3a9.34,9.34,0,0,1-1.23,2.86c-.31.57-.61,1.13-.89,1.7a52.33,52.33,0,0,0-5.6,31.15l.13,1,.47.89a13.7,13.7,0,0,1,1.5,5.1l.08.95.4.86a46.42,46.42,0,0,0,11.63,15.67c3.32,3.7,7.52,5.76,11.24,7.6l1.13.55.17.08a28.23,28.23,0,0,0,3.84,1.35c1.37.42,2.92.89,3.27,1.4l.15.23A1.6,1.6,0,0,1,287.48,149.44Z"/><path class="cls-2" d="M184.51,205l0,.28a1.78,1.78,0,0,1-1.55,1.34h-.1c-6.59,0-13.33-2.22-19.16-4.31a56.65,56.65,0,0,1-29.89-31.57l-.18-.41a21.52,21.52,0,0,1-1.35-5.07c-.12-.64-.24-1.29-.36-1.92l-.07-.28c-.7-2.74-1.38-5.55-2-8.28-.53-2.24-1.06-4.48-1.62-6.71l-.69-2.72-2.58-1.09c-6.07-2.54-10.45-5.28-13.79-8.63l-.06-.06c-6.35-6.19-10.41-15.09-11.43-25.07-.83-8.3.07-15.58,2.67-21.64.54-1.16,1.64-2.1,2.42-2H105a1.7,1.7,0,0,1,1.08.64,1.22,1.22,0,0,1,.33.78l0,.35a9.49,9.49,0,0,1-.86,2.13,18.63,18.63,0,0,0-1.81,5.17,45.38,45.38,0,0,0,2.82,27.12c5.41,12.34,19,20.53,33.22,20.53a37.33,37.33,0,0,0,4-.21c7.65-.54,14-4.36,19.67-7.73l.21-.12a32.24,32.24,0,0,0,3.29-2.41c1.65-1.31,2.86-2.23,3.51-2.1l.42.06c.45.06.85.58,1.05,1.07a1.74,1.74,0,0,1,0,1.36c-4.37,4.21-10,7.26-15.46,9.94a37.8,37.8,0,0,1-17.62,3.61l-7.6-.19,2,7.31c.52,1.89.94,3.85,1.37,5.93,1.12,5.32,2.38,11.32,6,16.64a52.13,52.13,0,0,0,22.62,21.53l.32.14a57.87,57.87,0,0,0,19.78,4.85,1.3,1.3,0,0,1,.81.54A1.73,1.73,0,0,1,184.51,205Z"/><g id="_3b4652ff" data-name="#3b4652ff"><path class="cls-2" d="M142.3,20c0,2.78,0,5.55,0,8.33,0,2.27,0,4.59,0,6.91l-.57-.52c-.26-.26-.53-.48-.74-.66a.18.18,0,0,1-.07-.05c0-2.14,0-4.3,0-6.41,0-2.6,0-5.29,0-7.94v-.05a5.14,5.14,0,0,0-1.79-3.72,5.5,5.5,0,0,0-4-1.38H8.76a5.43,5.43,0,0,0-4,1.53,5.28,5.28,0,0,0-1.65,4q0,13.13,0,26.26V60.68a5.43,5.43,0,0,0,5.68,5.71H98.28l.27.53c.16.35.33.68.5,1H8.61A7,7,0,0,1,3.9,66.26l0,0A7,7,0,0,1,1.5,60.81V44.13c0-8,0-16.32,0-24.44a6.9,6.9,0,0,1,6-6.5h0a7.49,7.49,0,0,1,.81,0H135.57a6.78,6.78,0,0,1,5.81,3.17l0,.05A6.81,6.81,0,0,1,142.3,20Z"/><path class="cls-2" d="M145.74,76.09c-1.58,1.36-3.14,2.7-4.71,4.09l-.06,0c-1.52-1.79-3.07-3.59-4.58-5.34l-2.6-3-1.67-2-2,1.64c-.55.46-1.08.92-1.58,1.38l-1.12,1c-.83-3.62-1.66-7.27-2.46-10.82-.63-2.82-1.29-5.73-2-8.61l2.32.92c5.26,2.07,10.7,4.21,16,6.35l-1,.87c-.54.46-1.1.93-1.65,1.43l-1.88,1.73,1.67,1.92,2.94,3.42C142.85,72.75,144.3,74.43,145.74,76.09Z"/></g><g id="_2b78c1ff" data-name="#2b78c1ff"><path class="cls-3" d="M119.44,35.86A19.34,19.34,0,0,1,142.38,55a39,39,0,0,1-3.73-1.4A15.46,15.46,0,1,0,109.05,61a15.32,15.32,0,0,0,10.56,8.85c.24,1.25.5,2.5.67,3.76a19.19,19.19,0,0,1-12.21-7,18.89,18.89,0,0,1-3.9-15.15A19.38,19.38,0,0,1,119.44,35.86Z"/><path class="cls-3" d="M119.36,43a12,12,0,0,1,10.34,1.35,12.23,12.23,0,0,1,5.34,8,41.34,41.34,0,0,1-4.28-1.69,13.27,13.27,0,0,0-2.45-2.73,8.75,8.75,0,0,0-11.84,1.53A8.56,8.56,0,0,0,118,61.53c.24,1.53.5,3,.67,4.59a12.48,12.48,0,0,1-6.7-6.26,12.21,12.21,0,0,1-.16-10.14A12.46,12.46,0,0,1,119.36,43Z"/></g></g></g></svg>